<?xml version="1.0" standalone="no"?>
<!DOCTYPE svg PUBLIC "-//W3C//DTD SVG 20010904//EN"
 "http://www.w3.org/TR/2001/REC-SVG-20010904/DTD/svg10.dtd">
<svg version="1.0" xmlns="http://www.w3.org/2000/svg"
 width="128.000000pt" height="128.000000pt" viewBox="0 0 128.000000 128.000000"
 preserveAspectRatio="xMidYMid meet">

<g transform="translate(0.000000,128.000000) scale(0.100000,-0.100000)"
fill="#000000" stroke="none">
<path d="M487 1183 c-13 -12 -7 -33 8 -33 8 0 15 9 15 20 0 20 -11 26 -23 13z"/>
<path d="M1091 1168 c-78 -29 -60 -138 23 -138 59 0 96 67 62 112 -19 25 -57
37 -85 26z m57 -30 c15 -15 15 -61 0 -76 -15 -15 -51 -15 -66 0 -15 15 -15 61
0 76 7 7 21 12 33 12 12 0 26 -5 33 -12z"/>
<path d="M655 1135 c-14 -13 -25 -31 -25 -39 0 -12 -16 -16 -77 -18 -50 -2
-78 -7 -81 -15 -3 -10 17 -13 78 -13 l81 0 -3 -26 c-4 -36 -60 -55 -164 -57
-76 -2 -85 -4 -123 -35 -22 -18 -55 -35 -73 -39 -75 -14 -132 -65 -173 -156
-90 -197 -26 -457 130 -528 22 -10 48 -19 59 -19 10 0 34 -13 52 -30 45 -39
106 -55 155 -41 30 9 42 8 70 -6 44 -23 114 -23 158 0 28 14 40 15 70 6 48
-14 110 2 154 40 17 15 48 31 68 35 181 33 274 325 174 544 -41 90 -98 141
-173 155 -18 4 -51 21 -73 39 -38 31 -47 33 -123 35 -104 2 -160 21 -164 57
-3 25 -2 26 51 26 58 0 87 19 87 57 0 54 -91 73 -135 28z m103 -27 c3 -28 3
-28 -53 -28 -59 0 -61 3 -26 43 10 12 26 17 45 15 25 -2 32 -8 34 -30z m-20
-175 c88 -70 140 -194 149 -353 8 -158 -36 -312 -115 -393 -48 -50 -82 -67
-132 -67 -205 0 -323 409 -196 685 28 62 89 133 131 152 48 21 119 11 163 -24z
m-245 11 c3 -3 -9 -27 -28 -52 -67 -94 -96 -201 -96 -350 1 -150 34 -267 101
-351 16 -21 27 -41 23 -45 -3 -3 -22 -6 -42 -6 -79 1 -153 72 -203 198 -20 51
-23 74 -23 207 0 133 3 156 23 207 34 85 82 149 132 175 40 22 99 30 113 17z
m407 -17 c50 -26 98 -90 132 -175 20 -51 23 -74 23 -207 0 -133 -3 -156 -23
-207 -50 -126 -124 -197 -203 -198 -20 0 -38 3 -42 6 -3 4 9 27 28 51 70 92
99 209 93 377 -5 140 -32 232 -91 315 -20 27 -33 52 -30 55 14 13 73 5 113
-17z m-652 -114 c-76 -155 -76 -382 1 -536 l28 -58 -26 6 c-45 11 -95 60 -130
128 -29 57 -34 78 -39 160 -5 112 18 206 68 275 27 37 88 80 116 82 6 0 -2
-26 -18 -57z m813 37 c139 -71 185 -354 85 -525 -29 -49 -77 -90 -117 -100
l-26 -6 28 58 c77 154 77 381 1 536 -16 31 -25 57 -20 57 5 0 27 -9 49 -20z"/>
<path d="M487 678 c-19 -35 -33 -66 -31 -70 7 -10 141 -10 147 0 6 8 -64 132
-74 132 -4 0 -23 -28 -42 -62z m66 -18 l18 -30 -41 0 -41 0 16 30 c9 17 19 30
23 30 4 0 16 -13 25 -30z"/>
<path d="M723 713 c-26 -36 -53 -89 -53 -103 0 -11 132 -15 143 -3 6 6 -44
105 -63 126 -4 5 -16 -4 -27 -20z m42 -53 l16 -30 -40 0 -40 0 17 30 c21 37
28 37 47 0z"/>
<path d="M537 524 c-24 -24 7 -104 48 -122 47 -22 84 -15 122 23 28 28 34 41
31 67 l-3 33 -95 3 c-53 1 -99 0 -103 -4z m173 -43 c0 -35 -34 -65 -74 -65
-39 0 -69 23 -81 62 -6 22 -5 22 74 22 73 0 81 -2 81 -19z"/>
<path d="M887 1133 c-13 -12 -7 -33 8 -33 8 0 15 9 15 20 0 20 -11 26 -23 13z"/>
<path d="M107 1082 c-58 -60 -19 -152 63 -152 56 0 90 34 90 90 0 85 -95 123
-153 62z m108 -17 c14 -13 25 -34 25 -46 0 -30 -38 -69 -67 -69 -30 0 -73 42
-73 70 0 27 43 70 70 70 12 0 32 -11 45 -25z"/>
<path d="M320 1055 c0 -8 7 -15 15 -15 8 0 15 7 15 15 0 8 -7 15 -15 15 -8 0
-15 -7 -15 -15z"/>
<path d="M1120 955 c0 -8 7 -15 15 -15 8 0 15 7 15 15 0 8 -7 15 -15 15 -8 0
-15 -7 -15 -15z"/>
<path d="M140 155 c0 -10 7 -15 18 -13 21 4 19 22 -2 26 -10 2 -16 -3 -16 -13z"/>
<path d="M1107 154 c-9 -10 2 -24 19 -24 8 0 14 7 14 15 0 15 -21 21 -33 9z"/>
</g>
</svg>
