<?xml version="1.0" standalone="no"?>
<!DOCTYPE svg PUBLIC "-//W3C//DTD SVG 20010904//EN"
 "http://www.w3.org/TR/2001/REC-SVG-20010904/DTD/svg10.dtd">
<svg version="1.0" xmlns="http://www.w3.org/2000/svg"
 width="128.000000pt" height="128.000000pt" viewBox="0 0 128.000000 128.000000"
 preserveAspectRatio="xMidYMid meet">

<g transform="translate(0.000000,128.000000) scale(0.100000,-0.100000)"
fill="#000000" stroke="none">
<path d="M284 639 c-25 -28 -26 -99 -1 -127 28 -31 55 -33 85 -7 54 46 27 155
-38 155 -15 0 -35 -9 -46 -21z"/>
<path d="M904 639 c-13 -14 -19 -36 -19 -66 0 -36 5 -49 27 -68 48 -42 103 -5
103 70 0 51 -26 85 -65 85 -15 0 -35 -9 -46 -21z"/>
<path d="M612 493 c-26 -38 -18 -53 29 -53 44 0 51 18 23 58 -20 29 -29 28
-52 -5z"/>
<path d="M225 430 c-4 -7 -3 -16 3 -22 14 -14 57 -6 57 12 0 18 -50 26 -60 10z"/>
<path d="M995 430 c-4 -7 -3 -16 3 -22 14 -14 57 -6 57 12 0 18 -50 26 -60 10z"/>
<path d="M423 384 c-7 -18 31 -62 65 -75 16 -6 32 -4 53 7 28 14 34 14 65 -1
31 -15 37 -15 68 0 31 15 37 15 64 1 35 -18 56 -13 95 22 49 46 27 80 -24 38
-35 -30 -37 -30 -63 -11 -25 19 -56 19 -84 -1 -20 -14 -24 -14 -44 0 -28 20
-58 20 -86 1 -23 -17 -47 -10 -72 19 -16 20 -29 20 -37 0z"/>
</g>
</svg>
